{"title":"Badmaash Company (2010) 1CD Cam Rip [Dare DEvils]","uid":5544502,"size":727979942,"categoryP":"video","categoryS":"movies","magnet":"?xt=urn:btih:2a9c6a8d043cb5505cf6913271f4cb34dff19c71&amp;dn=Badmaash+Company+%282010%29+1CD+Cam+Rip+%5BDare+DEvils%5D&amp;tr=udp%3A%2F%2Ftracker.openbittorrent.com%3A80&amp;tr=udp%3A%2F%2Fopen.demonii.com%3A1337&amp;tr=udp%3A%2F%2Ftracker.coppersurfer.tk%3A6969&amp;tr=udp%3A%2F%2Fexodus.desync.com%3A6969","seeders":1,"leechers":0,"uploader":"luvwithromio","files":-1,"time":1273339926,"description":"Format                           : AVI\nFormat/Info                      : Audio Video Interleave\nFile size                        : 694 MiB\nDuration                         : 2h 6mn\nOverall bit rate                 : 768 Kbps\n\nVideo\nID                               : 0\nFormat                           : MPEG-4 Visual\nFormat profile                   : Simple@L1\nFormat settings, BVOP            : No\nFormat settings, QPel            : No\nFormat settings, GMC             : No warppoints\nFormat settings, Matrix          : Default (H.263)\nCodec ID                         : DX50\nCodec ID/Hint                    : DivX 5\nDuration                         : 2h 6mn\nBit rate                         : 659 Kbps\nWidth                            : 640 pixels\nHeight                           : 208 pixels\nDisplay aspect ratio             : 3.077\nFrame rate                       : 23.976 fps\nResolution                       : 8 bits\nColorimetry                      : 4:2:0\nScan type                        : Progressive\nBits/(Pixel*Frame)               : 0.206\nStream size                      : 596 MiB (86%)\nWriting library                  : Lavc51.40.4\n\nAudio\nID                               : 1\nFormat                           : MPEG Audio\nFormat version                   : Version 1\nFormat profile                   : Layer 3\nCodec ID                         : 55\nCodec ID/Hint                    : MP3\nDuration                         : 2h 6mn\nBit rate mode                    : Constant\nBit rate                         : 96.0 Kbps\nChannel(s)                       : 2 channels\nSampling rate                    : 48.0 KHz\nStream size                      : 86.8 MiB (13%)\nAlignment                        : Split accross interleaves\nInterleave, duration             : 24 ms (0.58 video frame)","torrent":{"xt":"urn:btih:2a9c6a8d043cb5505cf6913271f4cb34dff19c71","amp;dn":"Badmaash+Company+%282010%29+1CD+Cam+Rip+%5BDare+DEvils%5D","amp;tr":["udp%3A%2F%2Ftracker.openbittorrent.com%3A80","udp%3A%2F%2Fopen.demonii.com%3A1337","udp%3A%2F%2Ftracker.coppersurfer.tk%3A6969","udp%3A%2F%2Fexodus.desync.com%3A6969"],"infoHash":"2a9c6a8d043cb5505cf6913271f4cb34dff19c71","infoHashBuffer":{"type":"Buffer","data":[42,156,106,141,4,60,181,80,92,246,145,50,113,244,203,52,223,241,156,113]},"announce":[],"urlList":[]}}